<svg width="53" height="52" viewBox="0 0 53 52" fill="none" xmlns="http://www.w3.org/2000/svg">
<path d="M13.1258 25.218C17.2354 19.2664 21.1897 15.793 21.1897 15.793C21.1897 15.793 16.8317 10.8265 11.5834 8.94764L11.2418 8.86639C6.82773 12.6532 4.03872 17.9393 3.4357 23.6617C2.83268 29.384 4.46037 35.1182 7.99143 39.7109C7.99143 39.264 8.05354 32.5711 13.1258 25.218Z" fill="#9E9E9E"/>
<path d="M49.6874 26C49.6898 22.7541 48.9834 19.5454 47.6156 16.59C46.2478 13.6345 44.2505 11.0009 41.7581 8.86639L41.4269 8.9578C36.1787 10.8367 31.8103 15.8031 31.8103 15.8031C31.8103 15.8031 35.7646 19.2765 39.8742 25.2281C44.9464 32.5812 45.0085 39.2742 44.9982 39.7211C48.05 35.7743 49.6974 30.954 49.6874 26Z" fill="#9E9E9E"/>
<path d="M20.8272 8.2163C23.8603 9.54676 26.4792 11.7304 26.4792 11.7304C26.4792 11.7304 29.1188 9.55692 32.1519 8.2163C35.9612 6.54051 38.87 7.06864 39.636 7.25145C35.7704 4.6451 31.1903 3.24988 26.4999 3.24988C21.8095 3.24988 17.2294 4.6451 13.3638 7.25145C14.1091 7.06864 17.0075 6.53036 20.8272 8.2163Z" fill="#9E9E9E"/>
<path d="M37.131 29.7477C32.3382 23.9687 26.4792 20.2109 26.4792 20.2109C26.4792 20.2109 20.6513 23.9687 15.8482 29.7477C11.7282 34.7141 10.1962 38.3602 9.36809 40.6961L9.23352 41.1836C11.4083 43.564 14.0699 45.4681 17.045 46.7716C20.02 48.0751 23.2417 48.7488 26.4999 48.7488C29.7582 48.7488 32.9798 48.0751 35.9549 46.7716C38.9299 45.4681 41.5916 43.564 43.7663 41.1836L43.6214 40.6961C42.7933 38.3602 41.2509 34.7141 37.131 29.7477Z" fill="#9E9E9E"/>
</svg>
