<svg width="59" height="58" viewBox="0 0 59 58" fill="none" xmlns="http://www.w3.org/2000/svg">
<path d="M46.0672 22.9961C45.9751 21.059 45.687 19.0879 44.8227 17.3207C44.3487 16.3429 43.7054 15.4536 42.9214 14.6926C42.1864 13.977 41.3615 13.3565 40.4669 12.8461C38.4964 11.6906 36.1456 10.9203 30.7411 9.33438C25.3366 7.74844 22.125 7.25 22.125 7.25V47.8387L31.3322 50.75C31.3322 50.75 31.3438 28.2297 31.3438 16.8223V16.3918C31.3438 15.3383 32.208 14.4887 33.199 14.4887H33.2566C34.2361 14.4887 35.0428 15.3383 35.0428 16.3918V31.4922C36.3104 32.0926 38.4076 32.5457 39.8596 32.523C40.823 32.5494 41.7767 32.3268 42.6252 31.8773C43.5009 31.4013 44.2325 30.7055 44.7455 29.8609C45.3178 28.9086 45.7047 27.8599 45.8863 26.7684C46.1018 25.5449 46.1133 24.2648 46.0672 22.9961Z" fill="#9E9E9E"/>
<path d="M9.98737 40.532C13.1448 39.4218 20.2778 37.1902 20.2778 37.1902V31.8433C20.2778 31.8433 11.4624 34.6527 7.45222 36.0461C6.4612 36.3972 5.45866 36.7144 4.49069 37.1222C3.3614 37.5867 2.25515 38.1078 1.25261 38.7988C0.802833 39.0817 0.437098 39.4764 0.192452 39.9429C0.077783 40.1827 0.013571 40.4427 0.00367 40.7075C-0.00623098 40.9722 0.0383832 41.2362 0.134835 41.4836C0.365303 42.0613 0.803194 42.5371 1.2987 42.9109C2.19753 43.5793 3.26921 43.9871 4.34089 44.2929C7.62381 45.3642 11.0694 45.8738 14.5276 45.7996C16.1985 45.7769 18.676 45.5843 20.2893 45.3011V40.5433C20.2893 40.5433 19.0218 40.8265 15.5301 41.9593C15.0001 42.1293 14.47 42.3332 13.9169 42.4465C13.0982 42.614 12.264 42.6975 11.4278 42.6957C10.6788 42.6617 9.90671 42.6164 9.20378 42.3445C8.95027 42.2312 8.6737 42.0953 8.56999 41.8234C8.4778 41.5968 8.60456 41.3703 8.76589 41.2117C9.08855 40.8832 9.54948 40.7019 9.98737 40.532Z" fill="#9E9E9E"/>
<path d="M59 39.1839C58.9885 38.5043 58.5736 37.9152 58.0896 37.4847C57.2715 36.7711 56.2574 36.3179 55.2434 35.9554C54.6096 35.7402 54.1717 35.5816 53.5494 35.389C50.6455 34.4601 47.5687 34.1203 44.5266 34.1089C43.6047 34.1429 41.8646 34.1656 40.9543 34.2675C38.4307 34.5507 33.199 36.0121 33.199 36.0121V41.5402C33.199 41.5402 40.9773 39.0933 44.3191 37.9379C45.4464 37.5784 46.6258 37.4024 47.8107 37.4168C48.5598 37.4394 49.3318 37.4961 50.0463 37.7679C50.2998 37.8699 50.5648 38.0171 50.6801 38.2777C50.7838 38.5722 50.5764 38.8441 50.3459 39.014C49.8043 39.4445 49.1129 39.6144 48.4791 39.8523C43.7545 41.4949 33.1875 44.916 33.1875 44.916V50.2402C33.1875 50.2402 46.693 45.7543 52.8695 43.5793C53.8951 43.2054 54.9322 42.8882 55.9117 42.4011C56.8221 41.948 57.7324 41.4269 58.4238 40.6679C58.7941 40.2593 58.9991 39.7313 59 39.1839Z" fill="#9E9E9E"/>
</svg>
