<svg width="60" height="60" viewBox="0 0 60 60" fill="none" xmlns="http://www.w3.org/2000/svg">
<path d="M39.6833 43.3333C39.1 44.8333 38.1166 45.8333 37 45.8333H22.9C21.7666 45.8333 20.8 44.8333 20.2166 43.3333H1.66663V46.25C1.75193 47.3188 2.2542 48.3112 3.06498 49.0128C3.87575 49.7144 4.92997 50.069 5.99996 50H54C55.07 50.069 56.1242 49.7144 56.9349 49.0128C57.7457 48.3112 58.248 47.3188 58.3333 46.25V43.3333H39.6833Z" fill="#9E9E9E"/>
<path d="M11.6668 16.6667H48.3334V40H53.3334V12.6167C53.3469 11.9387 53.0915 11.283 52.6231 10.7927C52.1547 10.3025 51.5113 10.0175 50.8334 10H9.16676C8.48892 10.0175 7.84553 10.3025 7.37712 10.7927C6.90871 11.283 6.65333 11.9387 6.66676 12.6167V40H11.6668V16.6667Z" fill="#9E9E9E"/>
</svg>
